<svg width="25" height="25" viewBox="0 0 25 25" fill="none" xmlns="http://www.w3.org/2000/svg">
<g clip-path="url(#clip0_519_10668)">
<path d="M3.01247 11.2279V12.8712C3.01247 13.703 2.3381 14.3774 1.50623 14.3774C0.674369 14.3774 0 13.703 0 12.8712V11.2279C0 10.3961 0.674369 9.72168 1.50623 9.72168C2.3381 9.72168 3.01247 10.3961 3.01247 11.2279Z" fill="#0066D9"/>
<path d="M21.0865 11.2708C21.0861 11.2565 21.0859 11.2422 21.0859 11.2279C21.0859 10.3961 21.7603 9.72168 22.5922 9.72168C23.424 9.72168 24.0984 10.3961 24.0984 11.2279C24.0984 11.2422 24.0982 11.2566 24.0978 11.2708H24.0984V12.9139H24.0978C24.0752 13.726 23.4097 14.3774 22.5922 14.3774C21.7746 14.3774 21.1092 13.726 21.0865 12.9139H21.0859V11.2707H21.0865V11.2708Z" fill="#4285F4"/>
<path d="M8.21559 16.1582V17.8014C8.21559 18.6332 7.54127 19.3076 6.70936 19.3076C5.87745 19.3076 5.20312 18.6332 5.20312 17.8014V16.1582C5.20312 15.3263 5.87749 14.6519 6.70936 14.6519C7.54122 14.6519 8.21559 15.3263 8.21559 16.1582V16.1582ZM8.21559 6.2992V11.6737H8.21521C8.19704 12.4898 7.52978 13.1457 6.70936 13.1457C5.88893 13.1457 5.22172 12.4898 5.20355 11.6737H5.20312V6.2992C5.20312 5.46734 5.87749 4.79297 6.70936 4.79297C7.54122 4.79297 8.21559 5.46734 8.21559 6.2992Z" fill="#EA4335"/>
<path d="M15.8828 7.94238C15.8828 8.77425 16.5571 9.44862 17.389 9.44862C18.221 9.44862 18.8953 8.77425 18.8953 7.94238V6.29921C18.8953 5.46734 18.2209 4.79297 17.389 4.79297C16.5572 4.79297 15.8828 5.46734 15.8828 6.29921V7.94238Z" fill="#34A853"/>
<path d="M10.543 3.14944C10.543 3.98126 11.2173 4.65567 12.0492 4.65567C12.8811 4.65567 13.5554 3.98126 13.5554 3.14944V1.50623C13.5554 0.674369 12.8811 0 12.0492 0C11.2173 0 10.543 0.674369 10.543 1.50623V3.14944ZM10.543 20.9503C10.543 20.1185 11.2173 19.4441 12.0492 19.4441C12.8811 19.4441 13.5554 20.1185 13.5554 20.9503V22.5935C13.5554 23.4254 12.8811 24.0997 12.0492 24.0997C11.2173 24.0997 10.543 23.4254 10.543 22.5935V20.9503Z" fill="#FAB908"/>
<path d="M15.8828 12.4603C15.8828 11.6285 16.5571 10.9541 17.389 10.9541C18.221 10.9541 18.8953 11.6285 18.8953 12.4603V17.8006C18.8953 18.6325 18.2209 19.3069 17.389 19.3069C16.5572 19.3069 15.8828 18.6325 15.8828 17.8006V12.4603Z" fill="#34A853"/>
<path d="M13.5554 7.66834V16.4318C13.5554 17.2637 12.8811 17.938 12.0492 17.938C11.2173 17.938 10.543 17.2637 10.543 16.4318V7.66834C10.543 6.83643 11.2173 6.16211 12.0492 6.16211C12.8811 6.16211 13.5554 6.83643 13.5554 7.66834Z" fill="#FAB908"/>
</g>
<defs>
<clipPath id="clip0_519_10668">
<rect width="24.0997" height="24.0997" fill="white"/>
</clipPath>
</defs>
</svg>
