<svg width="25" height="25" viewBox="0 0 25 25" fill="none" xmlns="http://www.w3.org/2000/svg">
<g clip-path="url(#clip0_519_10669)">
<path d="M12.0482 0.0390625C5.4137 0.0390625 0.0351562 5.41746 0.0351562 12.0519C0.0351562 18.6866 5.4137 24.0646 12.0482 24.0646C18.6833 24.0646 24.0613 18.6866 24.0613 12.0519C24.0613 5.41789 18.6833 0.0396363 12.048 0.0396363L12.0482 0.0390625ZM17.5572 17.365C17.3421 17.7179 16.8801 17.8298 16.5273 17.6132C13.7067 15.8904 10.156 15.5002 5.97445 16.4556C5.57149 16.5474 5.16983 16.2949 5.07802 15.8918C4.98579 15.4887 5.23725 15.087 5.64121 14.9952C10.2173 13.9493 14.1425 14.3999 17.3091 16.3351C17.662 16.5517 17.7738 17.0121 17.5572 17.365ZM19.0276 14.0936C18.7565 14.5348 18.1798 14.6739 17.7394 14.4028C14.5103 12.4176 9.58811 11.8428 5.76874 13.0021C5.2734 13.1517 4.75024 12.8726 4.5999 12.3781C4.45071 11.8828 4.73001 11.3606 5.22449 11.21C9.58725 9.88624 15.011 10.5275 18.7192 12.8062C19.1596 13.0773 19.2987 13.654 19.0276 14.0938V14.0936ZM19.1538 10.6876C15.2821 8.38789 8.89424 8.17645 5.19766 9.29837C4.60406 9.4784 3.97632 9.1433 3.79643 8.54971C3.61655 7.95582 3.95136 7.32851 4.54539 7.14805C8.78881 5.85986 15.843 6.10875 20.3006 8.75498C20.8357 9.07187 21.0107 9.76143 20.6936 10.2946C20.378 10.8286 19.6866 11.0046 19.1544 10.6876H19.1538Z" fill="#1ED760"/>
</g>
<defs>
<clipPath id="clip0_519_10669">
<rect width="24.0997" height="24.0997" fill="white"/>
</clipPath>
</defs>
</svg>
