<svg width="31" height="31" viewBox="0 0 31 31" fill="none" xmlns="http://www.w3.org/2000/svg">
<g clip-path="url(#clip0_519_10675)">
<path d="M29.5832 7.83975C29.2358 6.53973 28.2121 5.51604 26.912 5.16859C24.5555 4.53711 15.1072 4.53711 15.1072 4.53711C15.1072 4.53711 5.65893 4.53711 3.30239 5.16859C2.00262 5.51604 0.978679 6.53973 0.631229 7.83975C0 10.196 0 15.1123 0 15.1123C0 15.1123 0 20.0286 0.631229 22.3846C0.978679 23.6846 2.00262 24.7086 3.30239 25.056C5.65893 25.6873 15.1072 25.6873 15.1072 25.6873C15.1072 25.6873 24.5555 25.6873 26.912 25.056C28.2121 24.7086 29.2358 23.6846 29.5832 22.3846C30.2147 20.0286 30.2147 15.1123 30.2147 15.1123C30.2147 15.1123 30.2147 10.196 29.5832 7.83975Z" fill="#ED1F24"/>
<path d="M12.0859 19.6436L19.9358 15.1114L12.0859 10.5791V19.6436Z" fill="white"/>
</g>
<defs>
<clipPath id="clip0_519_10675">
<rect width="30.2632" height="30.2632" fill="white"/>
</clipPath>
</defs>
</svg>
