<svg width="393" height="364" viewBox="0 0 393 364" fill="none" xmlns="http://www.w3.org/2000/svg">
<path fill-rule="evenodd" clip-rule="evenodd" d="M1.24515 -11.8412C3.59586 -34.1309 8.14691 -56.2325 14.8983 -77.7938L237.206 -300.102C258.768 -306.853 280.869 -311.404 303.159 -313.755L1.24515 -11.8412ZM105.871 270.976C114.967 279.569 124.421 287.565 134.183 294.963L609.963 -180.817C602.565 -190.579 594.57 -200.033 585.976 -209.129L105.871 270.976ZM203.547 335.535C191.709 330.392 180.103 324.543 168.795 317.987L632.987 -146.205C639.543 -134.897 645.392 -123.291 650.535 -111.453L203.547 335.535ZM246.017 350.701C260.192 354.721 274.577 357.802 289.074 359.944L674.944 -25.9265C672.802 -40.4235 669.721 -54.8085 665.701 -68.9833L246.017 350.701ZM401.026 357.928C381.876 361.468 362.48 363.354 343.068 363.586L678.586 28.068C678.354 47.4797 676.468 66.8754 672.928 86.0254L401.026 357.928ZM486.665 329.924C520.086 313.79 551.412 291.861 579.136 264.136C606.861 236.412 628.79 205.086 644.924 171.665L486.665 329.924ZM556.273 -237.062L77.9382 241.273C69.8745 231.608 62.4314 221.6 55.609 211.302L526.302 -259.391C536.6 -252.569 546.608 -245.126 556.273 -237.062ZM34.5459 174.729L489.729 -280.454C477.738 -286.393 465.469 -291.581 452.992 -296.016L18.984 137.992C23.4194 150.469 28.6067 162.738 34.5459 174.729ZM6.39681 92.9427C3.25804 77.7329 1.16953 62.3495 0.131328 46.9087L361.909 -314.869C377.35 -313.831 392.733 -311.742 407.943 -308.603L6.39681 92.9427Z" fill="#004FFF"/>
</svg>
