<svg
  xmlns="http://www.w3.org/2000/svg"
  xmlns:xlink="http://www.w3.org/1999/xlink"
  version="1.1"
  id="Capa_1"
  x="0px"
  y="0px"
  viewBox="0 0 64 64"
  style="enable-background:new 0 0 64 64"
  xml:space="preserve"
  width="200px"
  height="200px"
  fill="#000000"
>
  <g id="SVGRepo_bgCarrier" stroke-width="0"></g>
  <g
    id="SVGRepo_tracerCarrier"
    stroke-linecap="round"
    stroke-linejoin="round"
  ></g>
  <g id="SVGRepo_iconCarrier">
    <g>
      <g>
        <path
          style="fill:#E24C4B;"
          d="M32,0C14.355,0,0,14.355,0,32s14.355,32,32,32s32-14.355,32-32S49.645,0,32,0z"
        ></path>
        <path
          style="fill:#FFFFFF;"
          d="M32,38.738c-1.104,0-2,0.896-2,2v6.06c0,1.104,0.896,2,2,2s2-0.896,2-2v-6.06C34,39.634,33.104,38.738,32,38.738z M32,17.202 c-1.104,0-2,0.896-2,2v14.333c0,1.104,0.896,2,2,2s2-0.896,2-2V19.202C34,18.098,33.104,17.202,32,17.202z"
        ></path>
      </g>
    </g>
  </g>
</svg>
