<?xml version="1.0" encoding="UTF-8"?>
<svg id="Layer_1" data-name="Layer 1" xmlns="http://www.w3.org/2000/svg" xmlns:xlink="http://www.w3.org/1999/xlink" viewBox="0 0 500 500">
  <defs>
    <linearGradient id="linear-gradient" x1="103.12" y1="252.92" x2="84.72" y2="242.3" gradientUnits="userSpaceOnUse">
      <stop offset="0" stopColor="#fff" stop-opacity="0"/>
      <stop offset="1" stopColor="#000"/>
    </linearGradient>
  </defs>
  <g>
    <path d="M140.1,311.99h-21.22c-2.14-24.75-18.6-45.74-38.61-62.1-1.03,1.48-8.16,12.18-8.93,13.31-5.46,7.99-25.84,45.01-32.51,47.83-14.47,6.11-24.43-7.44-24.43-19.29,0-18.79-.45-71,0-78.44.64-10.61,17.52-14.5,27.74-10.85,11.76,4.2,21.12,12.78,32.17,18.31.51.25,41.71-60.66,41.77-60.83,0,0,23.6,0,24.12,0,.33,0-16.34,25.31-23.96,36.03-2.16,3.04-24.8,35.61-24.13,36.17,24.25,20.65,49.58,45.16,48,79.86ZM32.41,229.04l-.06,49.38c0,2.68,3.52,3.68,4.93,1.4,8.17-13.22,18.78-31.98,25.35-41.78-17.47-12.13-30.22-22.5-30.22-9Z" style="fill: #00ffb6; strokeWidth: 0px;"/>
    <path d="M92.2,231.94l-11.89,18s7.46,5.44,14.63,12.93c1.01,1.06,13.27-17.28,12.38-18.08-2.47-2.21-5.37-4.58-8.04-6.75-1.31-1.07-2.46-2.02-3.54-2.89-2.22-1.79-3.54-3.21-3.54-3.21Z" style="fill: url(#linear-gradient); opacity: .53; strokeWidth: 0px;"/>
  </g>
  <g>
    <path d="M205.02,312.67h-17.95v-32.42c0-9.04-3.23-13.56-9.69-13.56-3.12,0-5.68,1.2-7.69,3.59-2.01,2.39-3.02,5.43-3.02,9.12v33.28h-18.01v-58.35h18.01v9.23h.23c4.29-7.1,10.54-10.65,18.75-10.65,12.91,0,19.37,8.02,19.37,24.04v35.73Z" style="fill: #040b1c; strokeWidth: 0px;"/>
    <path d="M250.34,314.09c-9.72,0-17.37-2.73-22.93-8.18-5.57-5.45-8.35-12.85-8.35-22.19s2.89-17.2,8.66-22.65c5.77-5.45,13.58-8.18,23.42-8.18s17.28,2.73,22.79,8.18c5.51,5.45,8.26,12.66,8.26,21.62,0,9.69-2.84,17.34-8.52,22.96-5.68,5.62-13.46,8.43-23.33,8.43ZM250.79,266.69c-4.25,0-7.56,1.46-9.91,4.39-2.36,2.93-3.53,7.07-3.53,12.42,0,11.21,4.52,16.81,13.56,16.81s12.93-5.75,12.93-17.26c0-10.9-4.35-16.35-13.05-16.35Z" style="fill: #040b1c; strokeWidth: 0px;"/>
    <path d="M332.41,311.98c-2.66,1.4-6.67,2.11-12.02,2.11-12.69,0-19.03-6.59-19.03-19.77v-26.72h-9.46v-13.28h9.46v-12.59l17.95-5.13v17.72h13.1v13.28h-13.1v23.59c0,6.08,2.41,9.12,7.24,9.12,1.9,0,3.85-.55,5.87-1.65v13.33Z" style="fill: #040b1c; strokeWidth: 0px;"/>
    <path d="M354.93,245.09c-3.04,0-5.53-.9-7.46-2.71-1.94-1.8-2.91-4.02-2.91-6.64s.97-4.9,2.91-6.61c1.94-1.71,4.42-2.56,7.46-2.56s5.57.85,7.49,2.56c1.92,1.71,2.88,3.91,2.88,6.61s-.96,4.98-2.88,6.72c-1.92,1.75-4.42,2.62-7.49,2.62Z" style="fill: #040b1c; strokeWidth: 0px;"/>
    <rect x="345.82" y="254.32" width="18.01" height="58.35" style="fill: #040b1c; strokeWidth: 0px;"/>
    <path d="M420.31,240.08c-2.32-.91-4.54-1.37-6.67-1.37-5.77,0-8.66,3.13-8.66,9.4v6.21h13.33v13.28h-13.33v45.07h-17.95v-45.07h-9.8v-13.28h9.8v-7.24c0-6.65,2.17-12,6.5-16.07,4.33-4.06,10.22-6.1,17.66-6.1,3.65,0,6.69.38,9.12,1.14v14.02Z" style="fill: #040b1c; strokeWidth: 0px;"/>
    <path d="M485.79,254.32l-23.7,63.02c-5.7,15.16-14.28,22.73-25.75,22.73-4.37,0-7.96-.49-10.77-1.48v-14.36c2.39,1.4,4.99,2.11,7.81,2.11,4.63,0,7.86-2.18,9.69-6.55l3.08-7.24-23.7-58.23h19.94l10.88,35.5c.68,2.2,1.22,4.81,1.6,7.81h.23c.34-2.2.97-4.77,1.88-7.69l11-35.61h17.83Z" style="fill: #040b1c; strokeWidth: 0px;"/>
  </g>
</svg>