<svg width="134" height="32" viewBox="0 0 134 32" fill="none" xmlns="http://www.w3.org/2000/svg">
<path d="M6.848 25H0.08V0.879999H6.848V9.844H11.708L17.576 0.879999H25.676L17.324 12.724L25.496 25H17.396L11.78 16.432H6.848V25ZM33.18 25H26.412V6.856H32.748V12.364H33.108C33.504 9.34 35.484 6.496 40.344 6.496C45.24 6.496 47.544 9.448 47.544 13.372V25H40.776V15.856C40.776 13.336 39.84 12.544 36.888 12.544C33.9 12.544 33.18 13.3 33.18 15.64V25ZM59.5888 25.36C53.2888 25.36 49.0048 21.796 49.0048 15.928C49.0048 10.024 53.2888 6.496 59.5888 6.496C65.8888 6.496 70.1728 10.024 70.1728 15.928C70.1728 21.796 65.8888 25.36 59.5888 25.36ZM59.5888 19.384C62.6488 19.384 63.4768 18.556 63.4768 15.928C63.4768 13.3 62.6488 12.436 59.5888 12.436C56.5288 12.436 55.7008 13.3 55.7008 15.928C55.7008 18.556 56.5288 19.384 59.5888 19.384ZM85.3708 25H80.6188C76.0828 25 73.3828 22.804 73.3828 18.088V12.4H70.7188V6.856H73.3828V3.724H80.1508V6.856H85.3708V12.4H80.1508V17.116C80.1508 18.556 80.5828 18.916 82.1308 18.916H85.3708V25ZM93.7543 5.2H86.9863V0.879999H93.7543V5.2ZM93.7543 25H86.9863V6.856H93.7543V25ZM104.232 25H97.4639V12.4H95.0159V6.856H97.6079C98.3279 3.436 101.676 0.879999 107.616 0.879999H109.056V5.704H106.536C104.664 5.704 103.764 5.884 103.8 6.856H109.056V12.4H104.232V25ZM114.502 31.12H111.226V25H116.482C117.022 25 117.454 24.928 117.742 24.784L109.066 6.856H116.77L119.902 13.984L121.198 18.16H121.666L122.854 13.912L125.554 6.856H133.114L124.51 25.72C122.566 30.004 119.794 31.12 114.502 31.12Z" fill="black"/>
</svg>
